<svg width="352" height="392" viewBox="0 0 352 392" fill="none" xmlns="http://www.w3.org/2000/svg">
<path d="M174.5 323.838C76.9 366.638 17.5 353.005 0 340.838C17.8333 373.672 77.7 423.738 174.5 361.338C271.3 298.938 325.5 321.672 340.5 340.838C325.833 317.338 272.1 281.038 174.5 323.838Z" fill="#3182CE"/>
<path d="M310.5 336.838C269.7 321.238 217.833 346.671 197 361.338C290.2 341.338 338.833 353.005 351.5 361.338C351.5 361.338 351.3 352.438 310.5 336.838Z" fill="#3182CE"/>
<path d="M101 327.61C75.8946 333.312 54.8702 334.679 38.0508 333.66L39 199L101 134V327.61ZM174 302.492C172.183 303.247 170.349 304.027 168.5 304.838C146.555 314.461 126.541 321.231 108.5 325.807V65L174 0V302.492ZM314.5 259.5V302.156C297.488 290.81 271.327 282.087 235.5 285.914V182.5L314.5 259.5ZM228 154V286.88C213.906 289.001 198.415 293.028 181.5 299.499V111L228 154ZM228 48V109L181.5 67V2.5L228 48Z" fill="#3182CE"/>
</svg>
